<svg xmlns="http://www.w3.org/2000/svg" xmlns:xlink="http://www.w3.org/1999/xlink" version="1.1" class="marks" width="623" height="441" viewBox="0 0 623 441"><rect x="0" y="0" width="623" height="441" fill="#000" stroke="none" role="presentation" aria-hidden="true" data-vega-export-background="true"/><g role="presentation" transform="translate(0, 24)"><g transform="translate(32, 0)"><text x="0" y="0" fill="#fff" font-family="OpenAI Sans, OpenAI Sans Variable Scripts, sans-serif" font-size="16" font-weight="bold" dominant-baseline="text-before-edge" text-anchor="start"><tspan x="0" dy="0">DeepSWE v1.1</tspan></text></g><g role="presentation" aria-hidden="true" focusable="false" transform="translate(571, 0) scale(0.1282051282051282)"><path d="M59.733 56.192v-14.57c0-1.227.46-2.148 1.533-2.76l29.293-16.87c3.988-2.3 8.742-3.374 13.649-3.374 18.404 0 30.06 14.263 30.06 29.446 0 1.073 0 2.3-.154 3.527l-30.366-17.79q-2.76-1.611-5.521 0zm68.4 56.745V78.122c0-2.147-.921-3.681-2.761-4.754L86.878 50.977l12.576-7.209c1.073-.613 1.994-.613 3.067 0l29.293 16.87c8.436 4.908 14.109 15.337 14.109 25.458 0 11.655-6.9 22.391-17.79 26.839zM50.684 82.264l-12.576-7.361c-1.073-.613-1.533-1.534-1.533-2.76v-33.74c0-16.41 12.576-28.833 29.6-28.833 6.441 0 12.421 2.147 17.484 5.981L53.446 33.035c-1.84 1.073-2.76 2.607-2.76 4.755v44.475zm27.07 15.643L59.731 87.785v-21.47l18.021-10.122 18.02 10.122v21.47zm11.578 46.623c-6.442 0-12.422-2.148-17.484-5.981l30.212-17.485c1.84-1.073 2.761-2.606 2.761-4.754V71.834l12.73 7.361c1.073.613 1.533 1.534 1.533 2.761v33.74c0 16.409-12.73 28.833-29.752 28.833zm-36.348-34.2L23.691 93.46c-8.436-4.908-14.11-15.336-14.11-25.458 0-11.809 7.056-22.391 17.944-26.839V76.13c0 2.148.92 3.681 2.76 4.754l38.342 22.237-12.576 7.209c-1.073.613-1.994.613-3.067 0m-1.686 25.152c-17.33 0-30.06-13.037-30.06-29.14 0-1.227.154-2.454.307-3.681l30.212 17.484q2.761 1.61 5.521 0l38.494-22.237v14.57c0 1.227-.46 2.147-1.533 2.76l-29.293 16.87c-3.988 2.3-8.742 3.374-13.65 3.374zm38.034 18.249c18.557 0 34.046-13.189 37.575-30.673 17.176-4.448 28.219-20.551 28.219-36.96 0-10.736-4.601-21.164-12.883-28.68.767-3.22 1.228-6.441 1.228-9.66 0-21.931-17.791-38.342-38.342-38.342-4.14 0-8.128.612-12.116 1.993C86.111 4.661 76.603.367 66.174.367 47.617.367 32.128 13.556 28.6 31.04 11.423 35.488.381 51.59.381 68c0 10.737 4.6 21.165 12.882 28.68-.767 3.22-1.227 6.441-1.227 9.661 0 21.93 17.79 38.341 38.342 38.341 4.14 0 8.127-.612 12.115-1.993 6.9 6.748 16.41 11.042 26.84 11.042" fill="#fff"/></g></g><g transform="translate(32, 68)"><g fill="none" stroke-miterlimit="10" transform="translate(76,85)"><g class="mark-group role-frame root" role="graphics-object" aria-roledescription="group mark container"><g transform="translate(0,0)"><path class="background" aria-hidden="true" d="M0.5,0.5h474v231h-474Z"/><g><g class="mark-group role-axis" role="graphics-symbol" aria-roledescription="axis" aria-label="X-axis for a linear scale with values from 0 to 204,116"><g transform="translate(0.5,231.5)"><path class="background" aria-hidden="true" d="M0,0h0v0h0Z" pointer-events="none"/><g><g class="mark-rule role-axis-tick" pointer-events="none"><line transform="translate(0,0)" x2="0" y2="5" stroke="#fff" stroke-width="1" opacity="1"/><line transform="translate(93,0)" x2="0" y2="5" stroke="#fff" stroke-width="1" opacity="1"/><line transform="translate(186,0)" x2="0" y2="5" stroke="#fff" stroke-width="1" opacity="1"/><line transform="translate(279,0)" x2="0" y2="5" stroke="#fff" stroke-width="1" opacity="1"/><line transform="translate(372,0)" x2="0" y2="5" stroke="#fff" stroke-width="1" opacity="1"/><line transform="translate(464,0)" x2="0" y2="5" stroke="#fff" stroke-width="1" opacity="1"/></g><g class="mark-text role-axis-label" pointer-events="none"><text text-anchor="middle" transform="translate(0,24)" font-family="SF Mono, monospace" font-size="12px" font-weight="normal" fill="#fff" opacity="1">0K</text><text text-anchor="middle" transform="translate(92.88816009787824,24)" font-family="SF Mono, monospace" font-size="12px" font-weight="normal" fill="#fff" opacity="1">40K</text><text text-anchor="middle" transform="translate(185.77632019575648,24)" font-family="SF Mono, monospace" font-size="12px" font-weight="normal" fill="#fff" opacity="1">80K</text><text text-anchor="middle" transform="translate(278.66448029363477,24)" font-family="SF Mono, monospace" font-size="12px" font-weight="normal" fill="#fff" opacity="1">120K</text><text text-anchor="middle" transform="translate(371.55264039151297,24)" font-family="SF Mono, monospace" font-size="12px" font-weight="normal" fill="#fff" opacity="1">160K</text><text text-anchor="middle" transform="translate(464.4408004893912,24)" font-family="SF Mono, monospace" font-size="12px" font-weight="normal" fill="#fff" opacity="1">200K</text></g><g class="mark-rule role-axis-domain" pointer-events="none"><line transform="translate(0,0)" x2="474" y2="0" stroke="#fff" stroke-width="1" opacity="1"/></g></g><path class="foreground" aria-hidden="true" d="" pointer-events="none" display="none"/></g></g><g class="mark-group role-axis" role="graphics-symbol" aria-roledescription="axis" aria-label="Y-axis titled 'Score' for a linear scale with values from 0% to 78%"><g transform="translate(0.5,0.5)"><path class="background" aria-hidden="true" d="M0,0h0v0h0Z" pointer-events="none"/><g><g class="mark-rule role-axis-tick" pointer-events="none"><line transform="translate(0,202)" x2="-5" y2="0" stroke="#fff" stroke-width="1" opacity="1"/><line transform="translate(0,172)" x2="-5" y2="0" stroke="#fff" stroke-width="1" opacity="1"/><line transform="translate(0,143)" x2="-5" y2="0" stroke="#fff" stroke-width="1" opacity="1"/><line transform="translate(0,113)" x2="-5" y2="0" stroke="#fff" stroke-width="1" opacity="1"/><line transform="translate(0,84)" x2="-5" y2="0" stroke="#fff" stroke-width="1" opacity="1"/><line transform="translate(0,54)" x2="-5" y2="0" stroke="#fff" stroke-width="1" opacity="1"/><line transform="translate(0,25)" x2="-5" y2="0" stroke="#fff" stroke-width="1" opacity="1"/></g><g class="mark-text role-axis-label" pointer-events="none"><text text-anchor="end" transform="translate(-15,205.5192215951424)" font-family="SF Mono, monospace" font-size="12px" font-weight="normal" fill="#fff" opacity="1">10%</text><text text-anchor="end" transform="translate(-15,176.03844319028477)" font-family="SF Mono, monospace" font-size="12px" font-weight="normal" fill="#fff" opacity="1">20%</text><text text-anchor="end" transform="translate(-15,146.55766478542716)" font-family="SF Mono, monospace" font-size="12px" font-weight="normal" fill="#fff" opacity="1">30%</text><text text-anchor="end" transform="translate(-15,117.07688638056953)" font-family="SF Mono, monospace" font-size="12px" font-weight="normal" fill="#fff" opacity="1">40%</text><text text-anchor="end" transform="translate(-15,87.59610797571192)" font-family="SF Mono, monospace" font-size="12px" font-weight="normal" fill="#fff" opacity="1">50%</text><text text-anchor="end" transform="translate(-15,58.11532957085431)" font-family="SF Mono, monospace" font-size="12px" font-weight="normal" fill="#fff" opacity="1">60%</text><text text-anchor="end" transform="translate(-15,28.634551165996697)" font-family="SF Mono, monospace" font-size="12px" font-weight="normal" fill="#fff" opacity="1">70%</text></g><g class="mark-rule role-axis-domain" pointer-events="none"><line transform="translate(0,231)" x2="0" y2="-231" stroke="#fff" stroke-width="1" opacity="1"/></g><g class="mark-text role-axis-title" pointer-events="none"><text text-anchor="middle" transform="translate(-56.673828125,115.5) rotate(-90) translate(0,-3)" font-family="OpenAI Sans, OpenAI Sans Variable Scripts, sans-serif" font-size="14px" font-weight="normal" fill="#fff" opacity="1">Score</text></g></g><path class="foreground" aria-hidden="true" d="" pointer-events="none" display="none"/></g></g><g class="mark-group role-scope layer_0_layer_0_pathgroup" role="graphics-object" aria-roledescription="group mark container"><g transform="translate(0,0)"><path class="background" aria-hidden="true" d="M0,0h474v231h-474Z"/><g><g class="mark-line role-mark layer_0_layer_0_marks" role="graphics-object" aria-roledescription="line mark container"><path aria-label="x_value: 25,243; score: 60%; model: Claude Fable 5; juice_index: 1" role="graphics-symbol" aria-roledescription="line mark" d="M58.619,55.341L93.356,38.293L133.032,28.748L186.594,24.895L275.397,25.446" stroke="#ffbda1" stroke-width="2"/></g><g class="mark-symbol role-mark layer_0_layer_1_marks" role="graphics-object" aria-roledescription="symbol mark container"><path aria-label="x_value: 25,243; score: 60%; model: Claude Fable 5; juice_index: 1" role="graphics-symbol" aria-roledescription="point" transform="translate(58.6190008590881,55.34084552914422)" d="M-4,-4h8v8h-8Z" fill="#ffbda1" stroke-width="1.5" opacity="1"/><path aria-label="x_value: 40,201; score: 65%; model: Claude Fable 5; juice_index: 2" role="graphics-symbol" aria-roledescription="point" transform="translate(93.35573587377095,38.292995800967226)" d="M-4,-4h8v8h-8Z" fill="#ffbda1" stroke-width="1.5" opacity="1"/><path aria-label="x_value: 57,287; score: 69%; model: Claude Fable 5; juice_index: 3" role="graphics-symbol" aria-roledescription="point" transform="translate(133.03226324245895,28.748004176826473)" d="M-4,-4h8v8h-8Z" fill="#ffbda1" stroke-width="1.5" opacity="1"/><path aria-label="x_value: 80,352; score: 70%; model: Claude Fable 5; juice_index: 4" role="graphics-symbol" aria-roledescription="point" transform="translate(186.59413077929824,24.895456054879652)" d="M-4,-4h8v8h-8Z" fill="#ffbda1" stroke-width="1.5" opacity="1"/><path aria-label="x_value: 118,593; score: 70%; model: Claude Fable 5; juice_index: 5" role="graphics-symbol" aria-roledescription="point" transform="translate(275.3966051552713,25.445862187698356)" d="M-4,-4h8v8h-8Z" fill="#ffbda1" stroke-width="1.5" opacity="1"/></g></g><path class="foreground" aria-hidden="true" d="" display="none"/></g><g transform="translate(0,0)"><path class="background" aria-hidden="true" d="M0,0h474v231h-474Z"/><g><g class="mark-line role-mark layer_0_layer_0_marks" role="graphics-object" aria-roledescription="line mark container"><path aria-label="x_value: 196,386; score: 12%; model: Gemini 3.1 Pro Preview; juice_index: 3" role="graphics-symbol" aria-roledescription="line mark" d="M456.049,196.355Z" stroke="#a3d576" stroke-width="2"/></g><g class="mark-symbol role-mark layer_0_layer_1_marks" role="graphics-object" aria-roledescription="symbol mark container"><path aria-label="x_value: 196,386; score: 12%; model: Gemini 3.1 Pro Preview; juice_index: 3" role="graphics-symbol" aria-roledescription="point" transform="translate(456.0485874449482,196.3550736419635)" d="M-6,0L0,-6L6,0L0,6Z" fill="#a3d576" stroke-width="1.5" opacity="1"/></g></g><path class="foreground" aria-hidden="true" d="" display="none"/></g><g transform="translate(0,0)"><path class="background" aria-hidden="true" d="M0,0h474v231h-474Z"/><g><g class="mark-line role-mark layer_0_layer_0_marks" role="graphics-object" aria-roledescription="line mark container"><path aria-label="x_value: 9,443; score: 27%; model: GPT-5.5; juice_index: 1" role="graphics-symbol" aria-roledescription="line mark" d="M21.928,151.428L45.574,71.856L72.359,41.201L107.506,33.374" stroke="#f5bacc" stroke-width="2"/></g><g class="mark-symbol role-mark layer_0_layer_1_marks" role="graphics-object" aria-roledescription="symbol mark container"><path aria-label="x_value: 9,443; score: 27%; model: GPT-5.5; juice_index: 1" role="graphics-symbol" aria-roledescription="point" transform="translate(21.92803828818605,151.42784139188072)" d="M4,0A4,4,0,1,1,-4,0A4,4,0,1,1,4,0" fill="#f5bacc" stroke-width="1.5" opacity="1"/><path aria-label="x_value: 19,625; score: 54%; model: GPT-5.5; juice_index: 2" role="graphics-symbol" aria-roledescription="point" transform="translate(45.574252095742565,71.85597759154544)" d="M4,0A4,4,0,1,1,-4,0A4,4,0,1,1,4,0" fill="#f5bacc" stroke-width="1.5" opacity="1"/><path aria-label="x_value: 31,160; score: 64%; model: GPT-5.5; juice_index: 3" role="graphics-symbol" aria-roledescription="point" transform="translate(72.35871561424594,41.20127459060644)" d="M4,0A4,4,0,1,1,-4,0A4,4,0,1,1,4,0" fill="#f5bacc" stroke-width="1.5" opacity="1"/><path aria-label="x_value: 46,295; score: 67%; model: GPT-5.5; juice_index: 4" role="graphics-symbol" aria-roledescription="point" transform="translate(107.50578407616115,33.37442273190077)" d="M4,0A4,4,0,1,1,-4,0A4,4,0,1,1,4,0" fill="#f5bacc" stroke-width="1.5" opacity="1"/></g></g><path class="foreground" aria-hidden="true" d="" display="none"/></g><g transform="translate(0,0)"><path class="background" aria-hidden="true" d="M0,0h474v231h-474Z"/><g><g class="mark-line role-mark layer_0_layer_0_marks" role="graphics-object" aria-roledescription="line mark container"><path aria-label="x_value: 14,414; score: 44%; model: GPT-5.6 Sol; juice_index: 0" role="graphics-symbol" aria-roledescription="line mark" d="M33.472,99.902L24.567,97.293L42.787,50.985L66.067,26.4L94.617,22.477L139.364,16.773" stroke="#eaf1fe" stroke-width="2"/></g><g class="mark-symbol role-mark layer_0_layer_1_marks" role="graphics-object" aria-roledescription="symbol mark container"><path aria-label="x_value: 14,414; score: 44%; model: GPT-5.6 Sol; juice_index: 0" role="graphics-symbol" aria-roledescription="point" transform="translate(33.47180727250996,99.90192651143869)" d="M4,0A4,4,0,1,1,-4,0A4,4,0,1,1,4,0" fill="#eaf1fe" stroke-width="1.5" opacity="1"/><path aria-label="x_value: 10,579; score: 45%; model: GPT-5.6 Sol; juice_index: 1" role="graphics-symbol" aria-roledescription="point" transform="translate(24.56692125044669,97.29287762260876)" d="M4,0A4,4,0,1,1,-4,0A4,4,0,1,1,4,0" fill="#eaf1fe" stroke-width="1.5" opacity="1"/><path aria-label="x_value: 18,425; score: 61%; model: GPT-5.6 Sol; juice_index: 2" role="graphics-symbol" aria-roledescription="point" transform="translate(42.78711962996571,50.98476571204246)" d="M4,0A4,4,0,1,1,-4,0A4,4,0,1,1,4,0" fill="#eaf1fe" stroke-width="1.5" opacity="1"/><path aria-label="x_value: 28,450; score: 69%; model: GPT-5.6 Sol; juice_index: 3" role="graphics-symbol" aria-roledescription="point" transform="translate(66.06744697489668,26.39956536909551)" d="M4,0A4,4,0,1,1,-4,0A4,4,0,1,1,4,0" fill="#eaf1fe" stroke-width="1.5" opacity="1"/><path aria-label="x_value: 40,745; score: 71%; model: GPT-5.6 Sol; juice_index: 4" role="graphics-symbol" aria-roledescription="point" transform="translate(94.61724997606022,22.47744261011326)" d="M4,0A4,4,0,1,1,-4,0A4,4,0,1,1,4,0" fill="#eaf1fe" stroke-width="1.5" opacity="1"/><path aria-label="x_value: 60,014; score: 73%; model: GPT-5.6 Sol; juice_index: 5" role="graphics-symbol" aria-roledescription="point" transform="translate(139.36391500941076,16.772911988773306)" d="M4,0A4,4,0,1,1,-4,0A4,4,0,1,1,4,0" fill="#eaf1fe" stroke-width="1.5" opacity="1"/></g></g><path class="foreground" aria-hidden="true" d="" display="none"/></g><g transform="translate(0,0)"><path class="background" aria-hidden="true" d="M0,0h474v231h-474Z"/><g><g class="mark-line role-mark layer_0_layer_0_marks" role="graphics-object" aria-roledescription="line mark container"><path aria-label="x_value: 5,891; score: 2%; model: GPT-5.6 Luna; juice_index: 0" role="graphics-symbol" aria-roledescription="line mark" d="M13.681,224.478L7.263,226.434L18.995,197.736L59.862,100.554L103.751,63.377L170.449,32.926" stroke="#5477c4" stroke-width="2"/></g><g class="mark-symbol role-mark layer_0_layer_1_marks" role="graphics-object" aria-roledescription="symbol mark container"><path aria-label="x_value: 5,891; score: 2%; model: GPT-5.6 Luna; juice_index: 0" role="graphics-symbol" aria-roledescription="point" transform="translate(13.680870105735826,224.4776725857093)" d="M4,0A4,4,0,1,1,-4,0A4,4,0,1,1,4,0" fill="#5477c4" stroke-width="1.5" opacity="1"/><path aria-label="x_value: 3,128; score: 2%; model: GPT-5.6 Luna; juice_index: 1" role="graphics-symbol" aria-roledescription="point" transform="translate(7.263273568653467,226.43431184843968)" d="M4,0A4,4,0,1,1,-4,0A4,4,0,1,1,4,0" fill="#5477c4" stroke-width="1.5" opacity="1"/><path aria-label="x_value: 8,180; score: 11%; model: GPT-5.6 Luna; juice_index: 2" role="graphics-symbol" aria-roledescription="point" transform="translate(18.99463019229505,197.73624811023106)" d="M4,0A4,4,0,1,1,-4,0A4,4,0,1,1,4,0" fill="#5477c4" stroke-width="1.5" opacity="1"/><path aria-label="x_value: 25,778; score: 44%; model: GPT-5.6 Luna; juice_index: 3" role="graphics-symbol" aria-roledescription="point" transform="translate(59.86240177015829,100.55404132975411)" d="M4,0A4,4,0,1,1,-4,0A4,4,0,1,1,4,0" fill="#5477c4" stroke-width="1.5" opacity="1"/><path aria-label="x_value: 44,678; score: 57%; model: GPT-5.6 Luna; juice_index: 4" role="graphics-symbol" aria-roledescription="point" transform="translate(103.75119820092488,63.37701091452437)" d="M4,0A4,4,0,1,1,-4,0A4,4,0,1,1,4,0" fill="#5477c4" stroke-width="1.5" opacity="1"/><path aria-label="x_value: 73,400; score: 67%; model: GPT-5.6 Luna; juice_index: 5" role="graphics-symbol" aria-roledescription="point" transform="translate(170.4491003404459,32.92602009236288)" d="M4,0A4,4,0,1,1,-4,0A4,4,0,1,1,4,0" fill="#5477c4" stroke-width="1.5" opacity="1"/></g></g><path class="foreground" aria-hidden="true" d="" display="none"/></g><g transform="translate(0,0)"><path class="background" aria-hidden="true" d="M0,0h474v231h-474Z"/><g><g class="mark-line role-mark layer_0_layer_0_marks" role="graphics-object" aria-roledescription="line mark container"><path aria-label="x_value: 6,737; score: 14%; model: GPT-5.6 Terra; juice_index: 0" role="graphics-symbol" aria-roledescription="line mark" d="M15.645,189.727L19.907,160.088L27.278,127.49L49.967,72.508L91.998,53.594L167.056,25.746" stroke="#a3befa" stroke-width="2"/></g><g class="mark-symbol role-mark layer_0_layer_1_marks" role="graphics-object" aria-roledescription="symbol mark container"><path aria-label="x_value: 6,737; score: 14%; model: GPT-5.6 Terra; juice_index: 0" role="graphics-symbol" aria-roledescription="point" transform="translate(15.645361803645853,189.72691023319933)" d="M4,0A4,4,0,1,1,-4,0A4,4,0,1,1,4,0" fill="#a3befa" stroke-width="1.5" opacity="1"/><path aria-label="x_value: 8,572; score: 24%; model: GPT-5.6 Terra; juice_index: 1" role="graphics-symbol" aria-roledescription="point" transform="translate(19.906536482015945,160.08840966387572)" d="M4,0A4,4,0,1,1,-4,0A4,4,0,1,1,4,0" fill="#a3befa" stroke-width="1.5" opacity="1"/><path aria-label="x_value: 11,747; score: 35%; model: GPT-5.6 Terra; juice_index: 2" role="graphics-symbol" aria-roledescription="point" transform="translate(27.277908646983317,127.48974413492037)" d="M4,0A4,4,0,1,1,-4,0A4,4,0,1,1,4,0" fill="#a3befa" stroke-width="1.5" opacity="1"/><path aria-label="x_value: 21,517; score: 54%; model: GPT-5.6 Terra; juice_index: 3" role="graphics-symbol" aria-roledescription="point" transform="translate(49.96695640881126,72.50809240986092)" d="M4,0A4,4,0,1,1,-4,0A4,4,0,1,1,4,0" fill="#a3befa" stroke-width="1.5" opacity="1"/><path aria-label="x_value: 39,617; score: 60%; model: GPT-5.6 Terra; juice_index: 4" role="graphics-symbol" aria-roledescription="point" transform="translate(91.99768775109995,53.593519793088326)" d="M4,0A4,4,0,1,1,-4,0A4,4,0,1,1,4,0" fill="#a3befa" stroke-width="1.5" opacity="1"/><path aria-label="x_value: 71,939; score: 70%; model: GPT-5.6 Terra; juice_index: 5" role="graphics-symbol" aria-roledescription="point" transform="translate(167.0561745165507,25.74568170407575)" d="M4,0A4,4,0,1,1,-4,0A4,4,0,1,1,4,0" fill="#a3befa" stroke-width="1.5" opacity="1"/></g></g><path class="foreground" aria-hidden="true" d="" display="none"/></g><g transform="translate(0,0)"><path class="background" aria-hidden="true" d="M0,0h474v231h-474Z"/><g><g class="mark-line role-mark layer_0_layer_0_marks" role="graphics-object" aria-roledescription="line mark container"><path aria-label="x_value: 28,923; score: 41%; model: Claude Opus 4.8; juice_index: 1" role="graphics-symbol" aria-roledescription="line mark" d="M67.165,110.724L95.938,87.509L116.258,78.378L199.916,70.735L313.571,57.139" stroke="#ff9365" stroke-width="2"/></g><g class="mark-symbol role-mark layer_0_layer_1_marks" role="graphics-object" aria-roledescription="symbol mark container"><path aria-label="x_value: 28,923; score: 41%; model: Claude Opus 4.8; juice_index: 1" role="graphics-symbol" aria-roledescription="point" transform="translate(67.16450258973268,110.7237306482938)" d="M-4,-4h8v8h-8Z" fill="#ff9365" stroke-width="1.5" opacity="1"/><path aria-label="x_value: 41,313; score: 49%; model: Claude Opus 4.8; juice_index: 2" role="graphics-symbol" aria-roledescription="point" transform="translate(95.9382589448922,87.50938650117271)" d="M-4,-4h8v8h-8Z" fill="#ff9365" stroke-width="1.5" opacity="1"/><path aria-label="x_value: 50,064; score: 52%; model: Claude Opus 4.8; juice_index: 3" role="graphics-symbol" aria-roledescription="point" transform="translate(116.25772974262325,78.37830500583615)" d="M-4,-4h8v8h-8Z" fill="#ff9365" stroke-width="1.5" opacity="1"/><path aria-label="x_value: 86,089; score: 54%; model: Claude Opus 4.8; juice_index: 4" role="graphics-symbol" aria-roledescription="point" transform="translate(199.91573270381548,70.73541320437683)" d="M-4,-4h8v8h-8Z" fill="#ff9365" stroke-width="1.5" opacity="1"/><path aria-label="x_value: 135,032; score: 59%; model: Claude Opus 4.8; juice_index: 5" role="graphics-symbol" aria-roledescription="point" transform="translate(313.57108453109663,57.138878204056475)" d="M-4,-4h8v8h-8Z" fill="#ff9365" stroke-width="1.5" opacity="1"/></g></g><path class="foreground" aria-hidden="true" d="" display="none"/></g></g><g class="mark-text role-mark layer_1_marks" role="graphics-object" aria-roledescription="text mark container"><text aria-label="axis_title: Output tokens" role="graphics-symbol" aria-roledescription="text mark" text-anchor="middle" transform="translate(237,280)" font-family="OpenAI Sans, OpenAI Sans Variable Scripts, sans-serif" font-size="14px" fill="#fff">Output tokens</text></g><g class="mark-group role-legend" role="graphics-symbol" aria-roledescription="legend" aria-label="Symbol legend for shape, fill color and stroke color with 7 values: GPT-5.6 Sol, GPT-5.6 Terra, GPT-5.6 Luna, GPT-5.5, Claude Fable 5, Claude Opus 4.8, Gemini 3.1 Pro Preview"><g transform="translate(0,-80)"><path class="background" aria-hidden="true" d="M0,0h296v62h-296Z" pointer-events="none" stroke-width="1"/><g><g class="mark-group role-legend-entry"><g transform="translate(0,0)"><path class="background" aria-hidden="true" d="M0,0h0v0h0Z" pointer-events="none"/><g><g class="mark-group role-scope" role="graphics-object" aria-roledescription="group mark container"><g transform="translate(0,0)"><path class="background" aria-hidden="true" d="M0,0h161.9058380126953v14h-161.9058380126953Z" pointer-events="none" opacity="1"/><g><g class="mark-symbol role-legend-symbol" pointer-events="none"><path transform="translate(7,7)" d="M5,0A5,5,0,1,1,-5,0A5,5,0,1,1,5,0" fill="#eaf1fe" stroke="#eaf1fe" stroke-width="1.5" opacity="1"/></g><g class="mark-text role-legend-label" pointer-events="none"><text text-anchor="start" transform="translate(18,11)" font-family="OpenAI Sans, OpenAI Sans Variable Scripts, sans-serif" font-size="14px" font-weight="normal" fill="#fff" opacity="1">GPT-5.6 Sol</text></g></g><path class="foreground" aria-hidden="true" d="" pointer-events="none" display="none"/></g><g transform="translate(172,0)"><path class="background" aria-hidden="true" d="M0,0h123.90985107421875v14h-123.90985107421875Z" pointer-events="none" opacity="1"/><g><g class="mark-symbol role-legend-symbol" pointer-events="none"><path transform="translate(7,7)" d="M5,0A5,5,0,1,1,-5,0A5,5,0,1,1,5,0" fill="#a3befa" stroke="#a3befa" stroke-width="1.5" opacity="1"/></g><g class="mark-text role-legend-label" pointer-events="none"><text text-anchor="start" transform="translate(18,11)" font-family="OpenAI Sans, OpenAI Sans Variable Scripts, sans-serif" font-size="14px" font-weight="normal" fill="#fff" opacity="1">GPT-5.6 Terra</text></g></g><path class="foreground" aria-hidden="true" d="" pointer-events="none" display="none"/></g><g transform="translate(0,16)"><path class="background" aria-hidden="true" d="M0,0h161.9058380126953v14h-161.9058380126953Z" pointer-events="none" opacity="1"/><g><g class="mark-symbol role-legend-symbol" pointer-events="none"><path transform="translate(7,7)" d="M5,0A5,5,0,1,1,-5,0A5,5,0,1,1,5,0" fill="#5477c4" stroke="#5477c4" stroke-width="1.5" opacity="1"/></g><g class="mark-text role-legend-label" pointer-events="none"><text text-anchor="start" transform="translate(18,11)" font-family="OpenAI Sans, OpenAI Sans Variable Scripts, sans-serif" font-size="14px" font-weight="normal" fill="#fff" opacity="1">GPT-5.6 Luna</text></g></g><path class="foreground" aria-hidden="true" d="" pointer-events="none" display="none"/></g><g transform="translate(172,16)"><path class="background" aria-hidden="true" d="M0,0h123.90985107421875v14h-123.90985107421875Z" pointer-events="none" opacity="1"/><g><g class="mark-symbol role-legend-symbol" pointer-events="none"><path transform="translate(7,7)" d="M5,0A5,5,0,1,1,-5,0A5,5,0,1,1,5,0" fill="#f5bacc" stroke="#f5bacc" stroke-width="1.5" opacity="1"/></g><g class="mark-text role-legend-label" pointer-events="none"><text text-anchor="start" transform="translate(18,11)" font-family="OpenAI Sans, OpenAI Sans Variable Scripts, sans-serif" font-size="14px" font-weight="normal" fill="#fff" opacity="1">GPT-5.5</text></g></g><path class="foreground" aria-hidden="true" d="" pointer-events="none" display="none"/></g><g transform="translate(0,32)"><path class="background" aria-hidden="true" d="M0,0h161.9058380126953v14h-161.9058380126953Z" pointer-events="none" opacity="1"/><g><g class="mark-symbol role-legend-symbol" pointer-events="none"><path transform="translate(7,7)" d="M-5,-5h10v10h-10Z" fill="#ffbda1" stroke="#ffbda1" stroke-width="1.5" opacity="1"/></g><g class="mark-text role-legend-label" pointer-events="none"><text text-anchor="start" transform="translate(18,11)" font-family="OpenAI Sans, OpenAI Sans Variable Scripts, sans-serif" font-size="14px" font-weight="normal" fill="#fff" opacity="1">Claude Fable 5</text></g></g><path class="foreground" aria-hidden="true" d="" pointer-events="none" display="none"/></g><g transform="translate(172,32)"><path class="background" aria-hidden="true" d="M0,0h123.90985107421875v14h-123.90985107421875Z" pointer-events="none" opacity="1"/><g><g class="mark-symbol role-legend-symbol" pointer-events="none"><path transform="translate(7,7)" d="M-5,-5h10v10h-10Z" fill="#ff9365" stroke="#ff9365" stroke-width="1.5" opacity="1"/></g><g class="mark-text role-legend-label" pointer-events="none"><text text-anchor="start" transform="translate(18,11)" font-family="OpenAI Sans, OpenAI Sans Variable Scripts, sans-serif" font-size="14px" font-weight="normal" fill="#fff" opacity="1">Claude Opus 4.8</text></g></g><path class="foreground" aria-hidden="true" d="" pointer-events="none" display="none"/></g><g transform="translate(0,48)"><path class="background" aria-hidden="true" d="M0,0h161.9058380126953v14h-161.9058380126953Z" pointer-events="none" opacity="1"/><g><g class="mark-symbol role-legend-symbol" pointer-events="none"><path transform="translate(7,7)" d="M-5,0L0,-5L5,0L0,5Z" fill="#a3d576" stroke="#a3d576" stroke-width="1.5" opacity="1"/></g><g class="mark-text role-legend-label" pointer-events="none"><text text-anchor="start" transform="translate(18,11)" font-family="OpenAI Sans, OpenAI Sans Variable Scripts, sans-serif" font-size="14px" font-weight="normal" fill="#fff" opacity="1">Gemini 3.1 Pro Preview</text></g></g><path class="foreground" aria-hidden="true" d="" pointer-events="none" display="none"/></g></g></g><path class="foreground" aria-hidden="true" d="" pointer-events="none" display="none"/></g></g></g><path class="foreground" aria-hidden="true" d="" pointer-events="none" display="none"/></g></g></g><path class="foreground" aria-hidden="true" d="" display="none"/></g></g></g></g></svg>